<svg id="Layer_1" data-name="Layer 1" xmlns="http://www.w3.org/2000/svg" viewBox="0 0 676.81 145"><defs><style>.cls-1{fill:#2085dd;}.cls-2{fill:#f2b501;}</style></defs><title>logo-enfys</title><path class="cls-1" d="M177.19,73.59v69.8h-39V1.39h30.4l57,72.2V1.39h39v142h-31Z" transform="translate(-4.77 -0.19)"/><path class="cls-1" d="M298.63,143.39V1.39H396v34h-58.4V59h47.6v31.6h-47.6v52.8Z" transform="translate(-4.77 -0.19)"/><path class="cls-2" d="M502.34,18.77,509.7,1.39h42.4L520.49,62.68" transform="translate(-4.77 -0.19)"/><path class="cls-1" d="M503.1,109.74v33.65H464.3V96L416.1,1.39h42.2l25.4,61.4" transform="translate(-4.77 -0.19)"/><path class="cls-1" d="M661.38,47.79a110.08,110.08,0,0,0-12.4-6.4,113.09,113.09,0,0,0-12.1-4.5,43.67,43.67,0,0,0-13.1-2.1,18.13,18.13,0,0,0-8.3,1.6,5.59,5.59,0,0,0-3.1,5.4,6.22,6.22,0,0,0,1.8,4.6,17,17,0,0,0,5.2,3.3,64.56,64.56,0,0,0,8.29,2.9c3.28.93,7,2.07,11.11,3.4a145.85,145.85,0,0,1,17.7,6.6,55.08,55.08,0,0,1,13.5,8.5,32.75,32.75,0,0,1,8.6,11.9,43.09,43.09,0,0,1,3,17q0,12.8-4.7,21.5a38.65,38.65,0,0,1-12.4,13.9,52.36,52.36,0,0,1-17.4,7.5,84.47,84.47,0,0,1-19.5,2.3,110.38,110.38,0,0,1-16-1.2,138,138,0,0,1-16.3-3.4,143.33,143.33,0,0,1-15.6-5.2,99.72,99.72,0,0,1-13.9-6.8l16.8-34.2a118.66,118.66,0,0,0,14.6,7.8,103.21,103.21,0,0,0,14.5,5.4,57.79,57.79,0,0,0,16.5,2.4q6.39,0,8.9-1.7a5.22,5.22,0,0,0,2.5-4.5,6.45,6.45,0,0,0-2.5-5.1,23,23,0,0,0-6.91-3.7q-4.38-1.6-10.09-3.2T608,88a103.69,103.69,0,0,1-16.2-6.9,44.09,44.09,0,0,1-11.2-8.4,30,30,0,0,1-6.5-10.7,41.44,41.44,0,0,1-2.1-13.8,47.66,47.66,0,0,1,4.3-20.8,42.68,42.68,0,0,1,11.7-15,52.3,52.3,0,0,1,16.9-9.1A64.26,64.26,0,0,1,625,.19a76.27,76.27,0,0,1,15.19,1.5,122,122,0,0,1,14.31,3.8,136.16,136.16,0,0,1,12.9,5q6,2.7,10.8,5.1Z" transform="translate(-4.77 -0.19)"/><rect class="cls-1" y="1.21" width="99.38" height="34.04"/><rect class="cls-1" y="109.14" width="101.18" height="34.04"/><rect class="cls-1" y="55.32" width="90.5" height="31.45"/></svg>