<?xml version="1.0" encoding="utf-8"?>
<!-- Generator: Adobe Illustrator 22.0.1, SVG Export Plug-In . SVG Version: 6.00 Build 0)  -->
<svg version="1.1" id="Layer_1" xmlns="http://www.w3.org/2000/svg" xmlns:xlink="http://www.w3.org/1999/xlink" x="0px" y="0px"
	 viewBox="0 0 676.8 254" style="enable-background:new 0 0 676.8 254;" xml:space="preserve">
<style type="text/css">
	.st0{clip-path:url(#SVGID_2_);}
	.st1{clip-path:url(#SVGID_4_);fill:#0087E4;}
	.st2{clip-path:url(#SVGID_6_);}
	.st3{clip-path:url(#SVGID_8_);fill:#0087E4;}
	.st4{clip-path:url(#SVGID_10_);}
	.st5{clip-path:url(#SVGID_12_);fill:#004058;}
	.st6{clip-path:url(#SVGID_14_);}
	.st7{clip-path:url(#SVGID_16_);fill:#0087E4;}
	.st8{clip-path:url(#SVGID_18_);}
	.st9{clip-path:url(#SVGID_20_);fill:#0087E4;}
	.st10{clip-path:url(#SVGID_22_);}
	.st11{clip-path:url(#SVGID_24_);fill:#004058;}
	.st12{clip-path:url(#SVGID_26_);}
	.st13{clip-path:url(#SVGID_28_);fill:#004058;}
	.st14{clip-path:url(#SVGID_30_);}
	.st15{clip-path:url(#SVGID_32_);fill:#004058;}
	.st16{clip-path:url(#SVGID_34_);}
	.st17{clip-path:url(#SVGID_36_);fill:#004058;}
	.st18{clip-path:url(#SVGID_38_);}
	.st19{clip-path:url(#SVGID_40_);fill:#004058;}
	.st20{clip-path:url(#SVGID_42_);}
	.st21{clip-path:url(#SVGID_44_);fill:#004058;}
	.st22{clip-path:url(#SVGID_46_);}
	.st23{clip-path:url(#SVGID_48_);fill:#004058;}
	.st24{clip-path:url(#SVGID_50_);}
	.st25{clip-path:url(#SVGID_52_);enable-background:new    ;}
	.st26{clip-path:url(#SVGID_54_);}
	.st27{clip-path:url(#SVGID_56_);}
	.st28{clip-path:url(#SVGID_58_);fill:#004058;}
	.st29{clip-path:url(#SVGID_60_);}
	.st30{clip-path:url(#SVGID_62_);fill:#004058;}
	.st31{clip-path:url(#SVGID_64_);}
	.st32{clip-path:url(#SVGID_66_);fill:#004058;}
	.st33{clip-path:url(#SVGID_68_);}
	.st34{clip-path:url(#SVGID_70_);fill:#004058;}
	.st35{clip-path:url(#SVGID_72_);}
	.st36{clip-path:url(#SVGID_74_);fill:#004058;}
	.st37{clip-path:url(#SVGID_76_);}
	.st38{clip-path:url(#SVGID_78_);fill:#004058;}
	.st39{clip-path:url(#SVGID_80_);}
	.st40{clip-path:url(#SVGID_82_);fill:#004058;}
</style>
<g>
	<defs>
		<polygon id="SVGID_1_" points="221.4,0.1 221.4,72 164.5,0.1 134.1,0.1 134.1,141.6 173.1,141.6 173.1,72 229.4,141.6 
			260.3,141.6 260.3,0.1 		"/>
	</defs>
	<clipPath id="SVGID_2_">
		<use xlink:href="#SVGID_1_"  style="overflow:visible;"/>
	</clipPath>
	<g class="st0">
		<defs>
			<rect id="SVGID_3_" x="1" y="-6.1" width="677.8" height="268.4"/>
		</defs>
		<clipPath id="SVGID_4_">
			<use xlink:href="#SVGID_3_"  style="overflow:visible;"/>
		</clipPath>
		<rect x="115" y="-19.1" class="st1" width="164.5" height="179.9"/>
	</g>
</g>
<g>
	<defs>
		<polygon id="SVGID_5_" points="294.3,0.1 294.3,141.6 333.2,141.6 333.2,89 380.7,89 380.7,57.5 333.2,57.5 333.2,34 391.5,34 
			391.5,0.1 		"/>
	</defs>
	<clipPath id="SVGID_6_">
		<use xlink:href="#SVGID_5_"  style="overflow:visible;"/>
	</clipPath>
	<g class="st2">
		<defs>
			<rect id="SVGID_7_" x="1" y="-6.1" width="677.8" height="268.4"/>
		</defs>
		<clipPath id="SVGID_8_">
			<use xlink:href="#SVGID_7_"  style="overflow:visible;"/>
		</clipPath>
		<rect x="275.1" y="-19.1" class="st3" width="135.6" height="179.9"/>
	</g>
</g>
<g>
	<defs>
		<polygon id="SVGID_9_" points="505,0.1 497.7,17.4 515.8,61.2 547.3,0.1 		"/>
	</defs>
	<clipPath id="SVGID_10_">
		<use xlink:href="#SVGID_9_"  style="overflow:visible;"/>
	</clipPath>
	<g class="st4">
		<defs>
			<rect id="SVGID_11_" x="1" y="-6.1" width="677.8" height="268.4"/>
		</defs>
		<clipPath id="SVGID_12_">
			<use xlink:href="#SVGID_11_"  style="overflow:visible;"/>
		</clipPath>
		<rect x="478.5" y="-19.1" class="st5" width="88" height="99.4"/>
	</g>
</g>
<g>
	<defs>
		<polygon id="SVGID_13_" points="411.6,0.1 459.7,94.4 459.7,141.6 498.4,141.6 498.4,108.1 479,61.3 453.7,0.1 		"/>
	</defs>
	<clipPath id="SVGID_14_">
		<use xlink:href="#SVGID_13_"  style="overflow:visible;"/>
	</clipPath>
	<g class="st6">
		<defs>
			<rect id="SVGID_15_" x="1" y="-6.1" width="677.8" height="268.4"/>
		</defs>
		<clipPath id="SVGID_16_">
			<use xlink:href="#SVGID_15_"  style="overflow:visible;"/>
		</clipPath>
		<rect x="392.4" y="-19.1" class="st7" width="125.2" height="179.9"/>
	</g>
</g>
<g>
	<defs>
		<path id="SVGID_17_" d="M656.4,46.3c-4-2.4-8.1-4.5-12.4-6.4c-3.6-1.6-7.6-3.1-12.1-4.5c-4.5-1.4-8.8-2.1-13.1-2.1
			c-3.5,0-6.2,0.5-8.3,1.6c-2.1,1.1-3.1,2.9-3.1,5.4c0,1.9,0.6,3.4,1.8,4.6c1.2,1.2,2.9,2.3,5.2,3.3c2.3,1,5,2,8.3,2.9
			c3.3,0.9,7,2.1,11.1,3.4c6.5,2,12.4,4.2,17.7,6.6c5.3,2.4,9.7,5.2,13.5,8.5c3.7,3.3,6.6,7.2,8.6,11.9c2,4.7,3,10.3,3,16.9
			c0,8.5-1.6,15.6-4.7,21.4c-3.1,5.8-7.3,10.4-12.4,13.9c-5.1,3.5-10.9,5.9-17.4,7.5c-6.5,1.5-12.9,2.3-19.5,2.3
			c-5.2,0-10.5-0.4-16-1.2c-5.5-0.8-10.9-1.9-16.3-3.4c-5.4-1.5-10.6-3.2-15.6-5.2c-5-2-9.6-4.3-13.9-6.8l16.8-34.1
			c4.7,2.9,9.5,5.5,14.6,7.8c4.3,2,9.1,3.8,14.5,5.4c5.4,1.6,10.9,2.4,16.5,2.4c4.3,0,7.2-0.6,8.9-1.7c1.7-1.1,2.5-2.6,2.5-4.5
			c0-2-0.8-3.7-2.5-5.1c-1.7-1.4-4-2.6-6.9-3.7c-2.9-1.1-6.3-2.1-10.1-3.2c-3.8-1.1-7.8-2.3-12.1-3.8c-6.3-2.1-11.6-4.4-16.2-6.9
			c-4.5-2.5-8.2-5.2-11.2-8.4c-2.9-3.1-5.1-6.7-6.5-10.7c-1.4-4-2.1-8.6-2.1-13.8c0-7.8,1.4-14.8,4.3-20.7c2.9-6,6.8-11,11.7-15
			c4.9-4,10.6-7,16.9-9.1c6.3-2.1,13-3.1,20.1-3.1c5.2,0,10.2,0.5,15.2,1.5c4.9,1,9.7,2.3,14.3,3.8c4.6,1.5,8.9,3.2,12.9,5
			c4,1.8,7.6,3.5,10.8,5.1L656.4,46.3z"/>
	</defs>
	<clipPath id="SVGID_18_">
		<use xlink:href="#SVGID_17_"  style="overflow:visible;"/>
	</clipPath>
	<g class="st8">
		<defs>
			<rect id="SVGID_19_" x="1" y="-6.1" width="677.8" height="268.4"/>
		</defs>
		<clipPath id="SVGID_20_">
			<use xlink:href="#SVGID_19_"  style="overflow:visible;"/>
		</clipPath>
		<rect x="541.8" y="-20.3" class="st9" width="153.9" height="182.9"/>
	</g>
</g>
<g>
	<defs>
		<polygon id="SVGID_21_" points="102,108 102,141.9 1,141.9 1,0.4 100.2,0.4 100.2,34.3 39.9,34.3 39.9,54.2 91.4,54.2 91.4,85.7 
			39.9,85.7 39.9,108 		"/>
	</defs>
	<clipPath id="SVGID_22_">
		<use xlink:href="#SVGID_21_"  style="overflow:visible;"/>
	</clipPath>
	<g class="st10">
		<defs>
			<rect id="SVGID_23_" x="1" y="-6.1" width="677.8" height="268.4"/>
		</defs>
		<clipPath id="SVGID_24_">
			<use xlink:href="#SVGID_23_"  style="overflow:visible;"/>
		</clipPath>
		<rect x="-18.2" y="-18.8" class="st11" width="139.4" height="179.9"/>
	</g>
</g>
<g>
	<defs>
		<path id="SVGID_25_" d="M28.3,212.5v-0.2c0-15.9,12-28.9,29.2-28.9c10.5,0,16.9,3.5,22,8.6l-7.8,9c-4.3-3.9-8.7-6.3-14.3-6.3
			c-9.4,0-16.2,7.8-16.2,17.4v0.2c0,9.6,6.6,17.5,16.2,17.5c6.4,0,10.3-2.5,14.7-6.5l7.8,7.9c-5.7,6.1-12.1,10-22.9,10
			C40.5,241.2,28.3,228.5,28.3,212.5"/>
	</defs>
	<clipPath id="SVGID_26_">
		<use xlink:href="#SVGID_25_"  style="overflow:visible;"/>
	</clipPath>
	<g class="st12">
		<defs>
			<rect id="SVGID_27_" x="1" y="-6.1" width="677.8" height="268.4"/>
		</defs>
		<clipPath id="SVGID_28_">
			<use xlink:href="#SVGID_27_"  style="overflow:visible;"/>
		</clipPath>
		<rect x="9.1" y="164.3" class="st13" width="90" height="96.1"/>
	</g>
</g>
<g>
	<defs>
		<path id="SVGID_29_" d="M85.9,219.1v-0.2c0-12.2,8.7-22.3,21.2-22.3c14.3,0,20.9,11.1,20.9,23.2c0,1-0.1,2.1-0.2,3.2H98
			c1.2,5.5,5,8.4,10.5,8.4c4.1,0,7-1.3,10.4-4.4l7,6.1c-4,4.9-9.8,8-17.5,8C95.4,241.2,85.9,232.2,85.9,219.1z M116.1,215.5
			c-0.7-5.4-3.9-9.1-9-9.1c-5,0-8.3,3.6-9.3,9.1H116.1z"/>
	</defs>
	<clipPath id="SVGID_30_">
		<use xlink:href="#SVGID_29_"  style="overflow:visible;"/>
	</clipPath>
	<g class="st14">
		<defs>
			<rect id="SVGID_31_" x="1" y="-6.1" width="677.8" height="268.4"/>
		</defs>
		<clipPath id="SVGID_32_">
			<use xlink:href="#SVGID_31_"  style="overflow:visible;"/>
		</clipPath>
		<rect x="66.8" y="177.5" class="st15" width="80.4" height="82.9"/>
	</g>
</g>
<g>
	<defs>
		<path id="SVGID_33_" d="M137.3,197.5h12.1v6.1c2.8-3.6,6.4-6.9,12.5-6.9c9.2,0,14.5,6.1,14.5,15.9v27.7h-12.1v-23.9
			c0-5.7-2.7-8.7-7.4-8.7c-4.6,0-7.6,3-7.6,8.7v23.9h-12.1V197.5z"/>
	</defs>
	<clipPath id="SVGID_34_">
		<use xlink:href="#SVGID_33_"  style="overflow:visible;"/>
	</clipPath>
	<g class="st16">
		<defs>
			<rect id="SVGID_35_" x="1" y="-6.1" width="677.8" height="268.4"/>
		</defs>
		<clipPath id="SVGID_36_">
			<use xlink:href="#SVGID_35_"  style="overflow:visible;"/>
		</clipPath>
		<rect x="118.1" y="177.5" class="st17" width="77.6" height="81.9"/>
	</g>
</g>
<g>
	<defs>
		<path id="SVGID_37_" d="M190.6,228.1v-20.3h-5.1v-10.4h5.1v-10.9h12.1v10.9h10.1v10.4h-10.1v18.3c0,2.8,1.2,4.1,3.9,4.1
			c2.2,0,4.2-0.6,6-1.5v9.7c-2.6,1.5-5.5,2.5-9.6,2.5C195.6,241,190.6,238,190.6,228.1"/>
	</defs>
	<clipPath id="SVGID_38_">
		<use xlink:href="#SVGID_37_"  style="overflow:visible;"/>
	</clipPath>
	<g class="st18">
		<defs>
			<rect id="SVGID_39_" x="1" y="-6.1" width="677.8" height="268.4"/>
		</defs>
		<clipPath id="SVGID_40_">
			<use xlink:href="#SVGID_39_"  style="overflow:visible;"/>
		</clipPath>
		<rect x="166.3" y="167.4" class="st19" width="65.7" height="92.8"/>
	</g>
</g>
<g>
	<defs>
		<path id="SVGID_41_" d="M225,197.5h12.1v8.6c2.5-5.9,6.5-9.7,13.7-9.4v12.7h-0.6c-8.1,0-13,4.9-13,15.1v15.8H225V197.5z"/>
	</defs>
	<clipPath id="SVGID_42_">
		<use xlink:href="#SVGID_41_"  style="overflow:visible;"/>
	</clipPath>
	<g class="st20">
		<defs>
			<rect id="SVGID_43_" x="1" y="-6.1" width="677.8" height="268.4"/>
		</defs>
		<clipPath id="SVGID_44_">
			<use xlink:href="#SVGID_43_"  style="overflow:visible;"/>
		</clipPath>
		<rect x="205.8" y="177.5" class="st21" width="64.2" height="81.9"/>
	</g>
</g>
<g>
	<defs>
		<path id="SVGID_45_" d="M256.3,227.9v-0.2c0-9.3,7.1-13.6,17.3-13.6c4.3,0,7.4,0.7,10.5,1.8v-0.7c0-5-3.1-7.8-9.2-7.8
			c-4.6,0-7.9,0.9-11.8,2.3l-3-9.3c4.7-2.1,9.3-3.4,16.6-3.4c6.6,0,11.4,1.8,14.5,4.8c3.2,3.2,4.6,7.9,4.6,13.6v24.8h-11.7v-4.6
			c-3,3.3-7,5.4-12.9,5.4C262.9,241,256.3,236.4,256.3,227.9 M284.1,225.2V223c-2.1-1-4.8-1.6-7.8-1.6c-5.2,0-8.4,2.1-8.4,5.9v0.2
			c0,3.3,2.7,5.2,6.6,5.2C280.3,232.7,284.1,229.5,284.1,225.2"/>
	</defs>
	<clipPath id="SVGID_46_">
		<use xlink:href="#SVGID_45_"  style="overflow:visible;"/>
	</clipPath>
	<g class="st22">
		<defs>
			<rect id="SVGID_47_" x="1" y="-6.1" width="677.8" height="268.4"/>
		</defs>
		<clipPath id="SVGID_48_">
			<use xlink:href="#SVGID_47_"  style="overflow:visible;"/>
		</clipPath>
		<rect x="237.1" y="177.8" class="st23" width="77.7" height="82.4"/>
	</g>
</g>
<g>
	<defs>
		<rect id="SVGID_49_" x="1" y="-1.1" width="675.6" height="254.1"/>
	</defs>
	<clipPath id="SVGID_50_">
		<use xlink:href="#SVGID_49_"  style="overflow:visible;"/>
	</clipPath>
	<g class="st24">
		<defs>
			<rect id="SVGID_51_" x="1" y="-6.1" width="677.8" height="268.4"/>
		</defs>
		<clipPath id="SVGID_52_">
			<use xlink:href="#SVGID_51_"  style="overflow:visible;"/>
		</clipPath>
		<g class="st25">
			<g>
				<defs>
					<rect id="SVGID_53_" x="303.9" y="181.8" width="349" height="72.9"/>
				</defs>
				<clipPath id="SVGID_54_">
					<use xlink:href="#SVGID_53_"  style="overflow:visible;"/>
				</clipPath>
				<g class="st26">
					<defs>
						<rect id="SVGID_55_" x="305.6" y="182" width="12.1" height="58.2"/>
					</defs>
					<clipPath id="SVGID_56_">
						<use xlink:href="#SVGID_55_"  style="overflow:visible;"/>
					</clipPath>
					<g class="st27">
						<defs>
							<rect id="SVGID_57_" x="1" y="-2.3" width="678.8" height="256.9"/>
						</defs>
						<clipPath id="SVGID_58_">
							<use xlink:href="#SVGID_57_"  style="overflow:visible;"/>
						</clipPath>
						<rect x="286.4" y="162.8" class="st28" width="50.5" height="96.6"/>
					</g>
				</g>
				<g class="st26">
					<defs>
						<polygon id="SVGID_59_" points="360.2,184.4 402.4,184.4 402.4,195.3 372.5,195.3 372.5,206.6 398.8,206.6 398.8,217.6 
							372.5,217.6 372.5,229.3 402.8,229.3 402.8,240.2 360.2,240.2 						"/>
					</defs>
					<clipPath id="SVGID_60_">
						<use xlink:href="#SVGID_59_"  style="overflow:visible;"/>
					</clipPath>
					<g class="st29">
						<defs>
							<rect id="SVGID_61_" x="1" y="-2.3" width="678.8" height="256.9"/>
						</defs>
						<clipPath id="SVGID_62_">
							<use xlink:href="#SVGID_61_"  style="overflow:visible;"/>
						</clipPath>
						<rect x="341.1" y="165.2" class="st30" width="80.9" height="94.2"/>
					</g>
				</g>
				<g class="st26">
					<defs>
						<path id="SVGID_63_" d="M413.7,225.2v-27.7h12.1v23.8c0,5.8,2.7,8.7,7.3,8.7c4.6,0,7.6-3,7.6-8.7v-23.8H453v42.8h-12.1v-6.1
							c-2.8,3.6-6.4,6.9-12.5,6.9C419.1,241,413.7,235,413.7,225.2"/>
					</defs>
					<clipPath id="SVGID_64_">
						<use xlink:href="#SVGID_63_"  style="overflow:visible;"/>
					</clipPath>
					<g class="st31">
						<defs>
							<rect id="SVGID_65_" x="1" y="-2.3" width="678.8" height="256.9"/>
						</defs>
						<clipPath id="SVGID_66_">
							<use xlink:href="#SVGID_65_"  style="overflow:visible;"/>
						</clipPath>
						<rect x="394.6" y="178.3" class="st32" width="77.6" height="81.9"/>
					</g>
				</g>
				<g class="st26">
					<defs>
						<path id="SVGID_67_" d="M464.4,197.5h12.1v8.6c2.5-5.9,6.5-9.7,13.7-9.4v12.7h-0.6c-8.1,0-13,4.9-13,15.1v15.8h-12.1V197.5z"
							/>
					</defs>
					<clipPath id="SVGID_68_">
						<use xlink:href="#SVGID_67_"  style="overflow:visible;"/>
					</clipPath>
					<g class="st33">
						<defs>
							<rect id="SVGID_69_" x="1" y="-2.3" width="678.8" height="256.9"/>
						</defs>
						<clipPath id="SVGID_70_">
							<use xlink:href="#SVGID_69_"  style="overflow:visible;"/>
						</clipPath>
						<rect x="445.2" y="177.5" class="st34" width="64.2" height="81.9"/>
					</g>
				</g>
				<g class="st26">
					<defs>
						<path id="SVGID_71_" d="M497.1,219.1v-0.2c0-12.3,9.9-22.3,23.2-22.3c13.3,0,23.1,9.8,23.1,22.1v0.2
							c0,12.3-9.9,22.3-23.2,22.3C506.9,241.2,497.1,231.4,497.1,219.1 M531.4,219.1v-0.2c0-6.3-4.6-11.8-11.3-11.8
							c-6.9,0-11.1,5.3-11.1,11.6v0.2c0,6.3,4.6,11.8,11.3,11.8C527.3,230.7,531.4,225.4,531.4,219.1"/>
					</defs>
					<clipPath id="SVGID_72_">
						<use xlink:href="#SVGID_71_"  style="overflow:visible;"/>
					</clipPath>
					<g class="st35">
						<defs>
							<rect id="SVGID_73_" x="1" y="-2.3" width="678.8" height="256.9"/>
						</defs>
						<clipPath id="SVGID_74_">
							<use xlink:href="#SVGID_73_"  style="overflow:visible;"/>
						</clipPath>
						<rect x="477.9" y="177.5" class="st36" width="84.7" height="82.9"/>
					</g>
				</g>
				<g class="st26">
					<defs>
						<path id="SVGID_75_" d="M553.8,197.5h12.1v6.1c3-4,7-6.9,13.3-6.9c10,0,19.5,7.8,19.5,22.1v0.2c0,14.3-9.3,22.1-19.5,22.1
							c-6.5,0-10.5-3-13.3-6.4V253h-12.1V197.5z M586.6,218.9v-0.2c0-7.1-4.8-11.8-10.5-11.8c-5.7,0-10.4,4.7-10.4,11.8v0.2
							c0,7.1,4.7,11.8,10.4,11.8C581.8,230.7,586.6,226.1,586.6,218.9z"/>
					</defs>
					<clipPath id="SVGID_76_">
						<use xlink:href="#SVGID_75_"  style="overflow:visible;"/>
					</clipPath>
					<g class="st37">
						<defs>
							<rect id="SVGID_77_" x="1" y="-2.3" width="678.8" height="256.9"/>
						</defs>
						<clipPath id="SVGID_78_">
							<use xlink:href="#SVGID_77_"  style="overflow:visible;"/>
						</clipPath>
						<rect x="534.6" y="177.5" class="st38" width="83.3" height="94.7"/>
					</g>
				</g>
				<g class="st26">
					<defs>
						<path id="SVGID_79_" d="M607.2,219.1v-0.2c0-12.2,8.7-22.3,21.2-22.3c14.3,0,20.9,11.1,20.9,23.2c0,1-0.1,2.1-0.2,3.2h-29.8
							c1.2,5.5,5,8.4,10.5,8.4c4.1,0,7-1.3,10.4-4.4l7,6.1c-4,4.9-9.7,8-17.5,8C616.7,241.2,607.2,232.2,607.2,219.1z M637.4,215.5
							c-0.7-5.4-3.9-9.1-9-9.1c-5,0-8.3,3.6-9.3,9.1H637.4z"/>
					</defs>
					<clipPath id="SVGID_80_">
						<use xlink:href="#SVGID_79_"  style="overflow:visible;"/>
					</clipPath>
					<g class="st39">
						<defs>
							<rect id="SVGID_81_" x="1" y="-2.3" width="678.8" height="256.9"/>
						</defs>
						<clipPath id="SVGID_82_">
							<use xlink:href="#SVGID_81_"  style="overflow:visible;"/>
						</clipPath>
						<rect x="588" y="177.5" class="st40" width="80.4" height="82.9"/>
					</g>
				</g>
			</g>
		</g>
	</g>
</g>
</svg>
